<svg width="512" height="512" viewBox="0 0 512 512" fill="none" xmlns="http://www.w3.org/2000/svg">
<path fill-rule="evenodd" clip-rule="evenodd" d="M256.296 481.072L252.2 479.536C144.68 444.72 73 345.392 73 232.24V82.736L255.784 30L439.08 82.736V232.24C439.08 345.392 367.4 444.72 260.392 479.536L256.296 481.072ZM98.6001 102.704V232.752C98.6001 333.104 161.576 421.68 256.296 454.448C350.504 421.68 413.48 333.104 413.48 232.752V102.704L255.784 57.136L98.6001 102.704ZM311.488 184.402L329.166 202.08L274.188 257.058L329.617 312.488L311.939 330.166L256.51 274.736L200.678 330.568L183 312.891L238.832 257.059L183.451 201.678L201.129 184L256.51 239.381L311.488 184.402Z" fill="white"/>
</svg>
