<svg width="512" height="512" viewBox="0 0 512 512" fill="none" xmlns="http://www.w3.org/2000/svg">
<path d="M403.493 253.88C403.493 260.707 408.613 267.533 417.147 267.533C425.68 267.533 430.8 262.413 430.8 253.88C430.8 160.013 354 83.2133 260.133 83.2133C253.307 83.2133 246.48 88.3333 246.48 96.8667C246.48 105.4 251.6 110.52 260.133 110.52C338.64 108.813 403.493 173.667 403.493 253.88ZM246.48 165.133C246.48 171.96 251.6 178.787 260.133 178.787C301.093 178.787 333.52 211.213 333.52 252.173C333.52 259 338.64 265.827 347.173 265.827C355.707 265.827 360.827 260.707 360.827 252.173C360.827 197.56 316.453 153.187 261.84 153.187C251.6 153.187 246.48 158.307 246.48 165.133ZM258.427 3C251.6 3 244.773 8.12 244.773 16.6533C244.773 25.1867 249.893 30.3067 258.427 30.3067C381.307 30.3067 482 131 482 253.88C482 260.707 487.12 267.533 495.653 267.533C504.187 267.533 509.307 262.413 509.307 253.88C507.6 115.64 396.667 3 258.427 3ZM330.107 301.667C328.4 299.96 324.987 298.253 321.573 298.253C318.16 298.253 314.747 299.96 313.04 301.667L285.733 328.973C275.493 339.213 258.427 339.213 248.187 328.973L185.04 270.947C174.8 260.707 174.8 243.64 185.04 233.4L215.76 202.68C220.88 197.56 220.88 189.027 215.76 183.907L89.4667 59.32C87.76 57.6133 84.3467 55.9067 80.9333 55.9067C77.52 55.9067 74.1067 57.6133 72.4 59.32C70.6933 61.0267 31.44 100.28 22.9067 110.52C-0.986666 134.413 -4.4 183.907 12.6667 226.573C50.2133 320.44 174.8 434.787 278.907 497.933C287.44 503.053 307.92 508.173 328.4 508.173C347.173 508.173 374.48 504.76 398.373 484.28C420.56 465.507 446.16 438.2 447.867 436.493C452.987 431.373 452.987 422.84 447.867 419.427L330.107 301.667ZM381.307 463.8C364.24 479.16 343.76 480.867 328.4 480.867C309.627 480.867 294.267 475.747 292.56 474.04C174.8 404.067 67.28 296.547 36.56 216.333C22.9067 180.493 28.0267 141.24 39.9733 127.587C46.8 120.76 67.28 100.28 80.9333 86.6267L186.747 192.44L164.56 214.627C144.08 235.107 144.08 267.533 164.56 288.013L227.707 346.04C246.48 364.813 280.613 364.813 301.093 346.04L319.867 327.267L418.853 426.253C410.32 438.2 394.96 453.56 381.307 463.8Z" fill="white"/>
</svg>
