<svg width="512" height="512" viewBox="0 0 512 512" fill="none" xmlns="http://www.w3.org/2000/svg">
<path fill-rule="evenodd" clip-rule="evenodd" d="M32 464C29.7421 464.014 27.507 463.549 25.4415 462.638C23.3759 461.726 21.5267 460.387 20.0155 458.71C18.5042 457.032 17.3651 455.054 16.673 452.905C15.9809 450.755 15.7516 448.484 16 446.24L28.32 334.24C28.7585 330.66 30.3936 327.334 32.96 324.8L256.015 101.745C256.407 101.246 256.83 100.77 257.28 100.32C257.731 99.8695 258.207 99.4472 258.705 99.0548L294.72 63.04C299.476 58.2748 305.124 54.4943 311.343 51.9148C317.561 49.3354 324.228 48.0077 330.96 48.0077C337.692 48.0077 344.358 49.3354 350.577 51.9148C356.796 54.4943 362.444 58.2748 367.2 63.04L416.96 112.8C421.725 117.556 425.506 123.204 428.085 129.423C430.665 135.642 431.992 142.308 431.992 149.04C431.992 155.772 430.665 162.438 428.085 168.657C425.506 174.876 421.725 180.524 416.96 185.28L380.991 221.249C380.586 221.765 380.148 222.256 379.68 222.72C379.242 223.155 378.78 223.563 378.297 223.943L155.36 446.88C152.826 449.446 149.5 451.081 145.92 451.52L33.92 463.84L32 464ZM59.68 343.2L268.542 134.338L345.538 211.582L136.8 420.32L50.08 429.92L59.68 343.2ZM394.4 162.72L368.4 188.72L291.28 111.6L317.28 85.6C319.064 83.81 321.183 82.3898 323.517 81.4207C325.851 80.4517 328.353 79.9529 330.88 79.9529C333.407 79.9529 335.909 80.4517 338.243 81.4207C340.577 82.3898 342.696 83.81 344.48 85.6L394.4 135.52C396.19 137.304 397.61 139.423 398.579 141.757C399.548 144.091 400.047 146.593 400.047 149.12C400.047 151.647 399.548 154.149 398.579 156.483C397.61 158.817 396.19 160.936 394.4 162.72ZM132.799 324.622L257.363 200.059L279.99 222.686L155.426 347.25L132.799 324.622Z" fill="white"/>
</svg>
