<svg width="512" height="512" viewBox="0 0 512 512" fill="none" xmlns="http://www.w3.org/2000/svg">
<path d="M464 95.9999H48H46.72C45.6051 95.8485 44.4749 95.8485 43.36 95.9999L40.64 97.1199C39.7696 97.5392 38.9618 98.0777 38.24 98.7199C37.3297 99.339 36.5202 100.094 35.84 100.96L34.88 101.92C34.8198 102.398 34.8198 102.882 34.88 103.36C34.3574 104.33 33.9288 105.348 33.6 106.4C32.9286 107.674 32.3923 109.014 32 110.4V112V400C32 404.243 33.6857 408.313 36.6863 411.314C39.6869 414.314 43.7565 416 48 416H464C468.243 416 472.313 414.314 475.314 411.314C478.314 408.313 480 404.243 480 400V112C480 107.756 478.314 103.687 475.314 100.686C472.313 97.6857 468.243 95.9999 464 95.9999ZM256 236.96L99.2 128H433.44L256 236.96ZM64 384V142.56L246.88 269.12C247.807 269.663 248.769 270.145 249.76 270.56H251.04C252.613 271.283 254.284 271.769 256 272C258.276 271.939 260.512 271.394 262.56 270.4H263.68L448 156.64V384H64Z" fill="white"/>
</svg>
