<svg width="512" height="512" viewBox="0 0 512 512" fill="none" xmlns="http://www.w3.org/2000/svg">
<g clip-path="url(#clip0_36_28)">
<path d="M460.021 410.01C446.134 410.01 433.079 404.592 423.258 394.782L255.99 227.503L88.7341 394.771C78.9261 404.592 65.8697 409.999 51.972 409.999C38.0743 409.999 25.0179 404.592 15.1973 394.771C-5.06771 374.506 -5.06771 341.523 15.1973 321.258L219.228 117.216C229.036 107.396 242.092 101.988 255.979 101.988C269.855 101.988 282.921 107.396 292.741 117.216L496.772 321.258C506.603 331.078 512 344.122 512 358.02C512 371.896 506.592 384.961 496.772 394.782C486.964 404.592 473.909 410.01 460.021 410.01ZM255.992 194.832L439.596 378.448C450.513 389.366 469.518 389.366 480.437 378.448C485.901 372.983 488.893 365.728 488.893 358.022C488.893 350.315 485.889 343.06 480.437 337.595L275.886 133.055C264.969 122.634 246.31 122.807 235.578 133.552L31.5344 337.595C20.2703 348.859 20.2703 367.182 31.5344 378.436C42.4516 389.353 61.4798 389.353 72.3862 378.436L255.992 194.832Z" fill="white"/>
</g>
<defs>
<clipPath id="clip0_36_28">
<rect width="512" height="512" fill="white"/>
</clipPath>
</defs>
</svg>
