<svg width="256" height="256" viewBox="0 0 256 256" fill="none" xmlns="http://www.w3.org/2000/svg">
<g clip-path="url(#clip0_13_18)">
<path d="M226.188 154L212.125 141.771C212.857 137.276 213.334 132.701 213.334 128C213.334 123.299 212.857 118.724 212.125 114.229L226.188 102M226.188 154L222.688 158.024M226.188 154L222.688 158.024L222.688 158.024M226.188 154C230.039 157.349 230.966 162.948 228.417 167.375L212.334 195.271M222.688 158.024L208.626 145.795L206.384 143.846L206.861 140.914C207.56 136.621 208 132.341 208 128C208 123.659 207.56 119.379 206.861 115.086L206.384 112.154L208.626 110.205L222.688 97.9758M222.688 158.024C224.604 159.691 225.078 162.484 223.797 164.711L212.334 195.271M222.688 97.9758L226.188 102M222.688 97.9758C224.601 96.3113 225.079 93.4989 223.798 91.2695M222.688 97.9758L222.688 97.9755L226.188 102M226.188 102C230.039 98.6506 230.966 93.0308 228.417 88.6041L223.798 91.2695M223.798 91.2695L228.413 88.6065L223.795 91.2657M223.798 91.2695L149.329 30.9828L152.89 49.2695L153.459 52.1871L156.239 53.2385C164.476 56.3534 172.066 60.6786 178.7 66.1227L181.004 68.0128L183.82 67.0425L201.352 61.0044L199.626 55.9615L201.362 61.0009L201.354 61.0036C203.774 60.1768 206.438 61.1781 207.712 63.3907L207.714 63.3945L223.795 91.2657M223.798 91.2695C223.797 91.2682 223.796 91.267 223.795 91.2657M223.798 91.2695L223.795 91.2657M212.334 195.271C209.774 199.697 204.457 201.685 199.625 200.021L212.334 195.271ZM144.105 26.6666C146.651 26.6666 148.834 28.46 149.328 30.9805L223.795 164.713L207.717 192.601C207.716 192.602 207.716 192.603 207.715 192.603C206.431 194.821 203.778 195.81 201.362 194.978C201.362 194.978 201.362 194.978 201.362 194.978L183.82 188.936L181.003 187.966L178.7 189.857C172.059 195.308 164.474 199.647 156.239 202.761L153.459 203.813L152.89 206.73L149.329 225.017C149.329 225.018 149.329 225.019 149.328 225.02C148.834 227.54 146.651 229.333 144.105 229.333H111.896C109.35 229.333 107.167 227.54 106.672 225.02C106.672 225.019 106.672 225.018 106.672 225.017L103.11 206.73L102.542 203.813L99.7618 202.761C91.5245 199.646 83.9344 195.321 77.3004 189.877L74.9972 187.987L72.1803 188.957L54.6488 194.995C54.6475 194.996 54.6462 194.996 54.6449 194.997C52.2255 195.823 49.5628 194.821 48.2887 192.609L48.2866 192.605L32.2054 164.734C32.2049 164.733 32.2044 164.732 32.204 164.732C30.9216 162.502 31.399 159.689 33.3126 158.024C33.3128 158.024 33.3129 158.024 33.313 158.024L47.3751 145.795L49.6165 143.846L49.1395 140.914C48.4408 136.621 48.0004 132.341 48.0004 128C48.0004 123.659 48.4408 119.379 49.1395 115.086L49.6165 112.154L47.3751 110.205L33.313 97.9758C33.3129 97.9757 33.3128 97.9756 33.3126 97.9755C31.3983 96.31 30.9212 93.4956 32.2054 91.2657L48.2811 63.4039C48.2819 63.4026 48.2827 63.4012 48.2835 63.3999C49.5717 61.182 52.2305 60.1925 54.6386 61.0217C54.6387 61.0217 54.6388 61.0218 54.6388 61.0218L72.1803 67.0634L74.9977 68.0338L77.301 66.1431C83.9419 60.6917 91.5268 56.3525 99.7618 53.2385L102.542 52.1871L103.11 49.2695L106.672 30.9828C106.672 30.982 106.672 30.9813 106.672 30.9805C107.167 28.46 109.35 26.6666 111.896 26.6666H144.105ZM73.917 194C81.0232 199.831 89.1246 204.441 97.8754 207.75L73.917 194ZM176 128C176 101.492 154.509 79.9999 128 79.9999C101.492 79.9999 80.0004 101.492 80.0004 128C80.0004 154.508 101.492 176 128 176C154.509 176 176 154.508 176 128Z" fill="white" stroke="white" stroke-width="10.6667"/>
</g>
<defs>
<clipPath id="clip0_13_18">
<rect width="256" height="256" fill="white"/>
</clipPath>
</defs>
</svg>
