<svg width="256" height="256" viewBox="0 0 256 256" fill="none" xmlns="http://www.w3.org/2000/svg">
<g clip-path="url(#clip0_13_18)">
<path d="M111.896 21.3333C106.787 21.3333 102.419 24.9449 101.438 29.9583L97.8754 48.2499C89.1206 51.5605 81.0255 56.1856 73.917 62.0208L56.3754 55.9791C51.5434 54.3151 46.227 56.3131 43.667 60.7291L27.5837 88.6041C25.0344 93.0308 25.9622 98.6506 29.8129 102L43.8754 114.229C43.144 118.724 42.667 123.299 42.667 128C42.667 132.701 43.144 137.276 43.8754 141.771L29.8129 154C25.9622 157.349 25.0344 162.969 27.5837 167.396L43.667 195.271C46.2164 199.697 51.5434 201.695 56.3754 200.042L73.917 194C81.0231 199.831 89.1246 204.441 97.8754 207.75L101.438 226.042C102.419 231.055 106.787 234.667 111.896 234.667H144.105C149.214 234.667 153.582 231.055 154.563 226.042L158.125 207.75C166.88 204.439 174.975 199.814 182.084 193.979L199.625 200.021C204.457 201.685 209.774 199.697 212.334 195.271L228.417 167.375C230.966 162.948 230.039 157.349 226.188 154L212.125 141.771C212.857 137.276 213.334 132.701 213.334 128C213.334 123.299 212.857 118.724 212.125 114.229L226.188 102C230.039 98.6506 230.966 93.0308 228.417 88.6041L212.334 60.7291C209.784 56.3024 204.457 54.3049 199.625 55.9583L182.084 61.9999C174.978 56.1684 166.876 51.559 158.125 48.2499L154.563 29.9583C153.582 24.9449 149.214 21.3333 144.105 21.3333H111.896ZM128 85.3333C151.563 85.3333 170.667 104.437 170.667 128C170.667 151.563 151.563 170.667 128 170.667C104.438 170.667 85.3337 151.563 85.3337 128C85.3337 104.437 104.438 85.3333 128 85.3333Z" fill="#747474"/>
</g>
<defs>
<clipPath id="clip0_13_18">
<rect width="256" height="256" fill="white"/>
</clipPath>
</defs>
</svg>
