<svg width="256" height="256" viewBox="0 0 256 256" fill="none" xmlns="http://www.w3.org/2000/svg">
<path fill-rule="evenodd" clip-rule="evenodd" d="M127.5 197.37C187.419 197.37 236 129.558 236 129.558C236 129.558 187.419 61.7454 127.5 61.7454C67.5809 61.7454 19 129.558 19 129.558C19 129.558 67.5809 197.37 127.5 197.37ZM127.5 170.245C138.291 170.245 148.64 165.959 156.27 158.328C163.901 150.698 168.188 140.349 168.188 129.558C168.188 118.767 163.901 108.418 156.27 100.787C148.64 93.1571 138.291 88.8704 127.5 88.8704C116.709 88.8704 106.36 93.1571 98.7296 100.787C91.0992 108.418 86.8125 118.767 86.8125 129.558C86.8125 140.349 91.0992 150.698 98.7296 158.328C106.36 165.959 116.709 170.245 127.5 170.245ZM127.5 149.902C132.895 149.902 138.07 147.758 141.885 143.943C145.7 140.128 147.844 134.953 147.844 129.558C147.844 124.162 145.7 118.988 141.885 115.173C138.07 111.357 132.895 109.214 127.5 109.214C122.105 109.214 116.93 111.357 113.115 115.173C109.3 118.988 107.156 124.162 107.156 129.558C107.156 134.953 109.3 140.128 113.115 143.943C116.93 147.758 122.105 149.902 127.5 149.902Z" fill="#921111"/>
</svg>
