<svg width="512" height="512" viewBox="0 0 512 512" fill="none" xmlns="http://www.w3.org/2000/svg">
<path fill-rule="evenodd" clip-rule="evenodd" d="M112 80H64C51.264 80 39.056 85.056 30.064 94.064C21.056 103.056 16 115.264 16 128V384C16 396.736 21.056 408.944 30.064 417.936C39.056 426.944 51.264 432 64 432C146.464 432 365.536 432 448 432C460.736 432 472.944 426.944 481.936 417.936C490.944 408.944 496 396.736 496 384V128C496 115.264 490.944 103.056 481.936 94.064C472.944 85.056 460.736 80 448 80H400V64C400 37.488 378.512 16 352 16H160C133.488 16 112 37.488 112 64V80ZM48 198.992V384C48 388.24 49.68 392.32 52.688 395.312C55.68 398.32 59.76 400 64 400H448C452.24 400 456.32 398.32 459.312 395.312C462.32 392.32 464 388.24 464 384V199.008C464 199.008 306.288 268.336 304.08 268.368H304V288.192C304 297.04 296.832 304.192 288 304.192H224C215.168 304.192 208 297.04 208 288.192V268.304C205.824 268.304 48 198.992 48 198.992ZM272 224V272.192H240V224H272ZM464 164V128C464 123.76 462.32 119.68 459.312 116.688C456.32 113.68 452.24 112 448 112H64C59.76 112 55.68 113.68 52.688 116.688C49.68 119.68 48 123.76 48 128V164L208 234.816V208C208 199.168 215.168 192 224 192H288C296.832 192 304 199.168 304 208V234.864L464 164ZM368 80V64C368 55.168 360.832 48 352 48H160C151.168 48 144 55.168 144 64V80H368Z" fill="white"/>
</svg>
