<svg width="512" height="512" viewBox="0 0 512 512" fill="none" xmlns="http://www.w3.org/2000/svg">
<path d="M255.206 284.18C326.648 284.18 384.595 226.232 384.595 154.791C384.595 83.3487 326.648 25.7983 255.206 25.7983C183.764 25.7983 125.817 83.7456 125.817 154.791C125.817 225.836 183.764 284.18 255.206 284.18ZM255.206 59.5348C307.597 59.5348 350.462 102.4 350.462 154.791C350.462 207.181 307.597 250.046 255.206 250.046C202.815 250.046 159.95 207.181 159.95 154.791C159.95 102.4 202.815 59.5348 255.206 59.5348Z" fill="white"/>
<path d="M31.355 486.201H480.645C490.17 486.201 497.712 478.66 497.712 469.135C497.712 379.832 425.079 306.803 335.38 306.803H176.62C87.3178 306.803 14.2883 379.436 14.2883 469.135C14.2883 478.66 21.8294 486.201 31.355 486.201ZM176.62 340.936H335.38C400.471 340.936 454.053 389.358 462.388 452.068H49.6124C57.9472 389.755 111.529 340.936 176.62 340.936Z" fill="white"/>
</svg>
