<svg width="512" height="512" viewBox="0 0 512 512" fill="none" xmlns="http://www.w3.org/2000/svg">
<path d="M318.792 156.263L293.116 77.2406C281.591 41.7702 231.409 41.7701 219.884 77.2406L194.208 156.263C192.401 161.825 187.218 165.591 181.369 165.591H98.2801C60.9843 165.591 45.4774 213.316 75.6504 235.238L142.871 284.077C147.602 287.515 149.582 293.608 147.775 299.17L122.099 378.193C110.574 413.663 151.171 443.159 181.344 421.237L248.565 372.399C253.296 368.961 259.704 368.961 264.435 372.399L331.656 421.237C361.828 443.159 402.426 413.663 390.901 378.193L365.225 299.17C363.418 293.608 365.398 287.515 370.129 284.077L437.35 235.238C467.523 213.317 452.016 165.591 414.72 165.591H331.631C325.782 165.591 320.599 161.825 318.792 156.263Z" stroke="white" stroke-width="25"/>
</svg>
