<svg width="512" height="512" viewBox="0 0 512 512" fill="none" xmlns="http://www.w3.org/2000/svg">
<path d="M255.624 177.326C212.211 177.326 176.894 212.644 176.894 256.056C176.894 299.469 212.211 334.787 255.624 334.787C299.037 334.787 334.354 299.469 334.354 256.056C334.354 212.644 299.045 177.326 255.624 177.326ZM255.624 307.669C227.166 307.669 204.012 284.507 204.012 256.056C204.012 227.598 227.158 204.444 255.624 204.444C284.066 204.444 307.236 227.59 307.236 256.056C307.236 284.499 284.074 307.669 255.624 307.669Z" fill="white"/>
<path d="M413.048 110.675C407.522 101.114 395.292 97.8412 385.729 103.365L358.498 119.095C351.739 122.999 343.384 122.514 336.659 118.553C335.837 118.069 335.01 117.592 334.178 117.122C327.388 113.289 322.797 106.301 322.797 98.5038V67C322.797 55.9543 313.843 47 302.797 47H208.451C197.405 47 188.451 55.9543 188.451 67V98.5176C188.451 106.308 183.869 113.292 177.09 117.131C176.778 117.307 176.466 117.485 176.156 117.664C169.395 121.553 161.04 121.94 154.33 117.963L127.222 101.895C117.719 96.2629 105.45 99.4008 99.8185 108.904L51.7325 190.044C46.1005 199.547 49.2399 211.817 58.7443 217.447L85.7586 233.451C92.5149 237.454 96.1624 245.038 95.9759 252.889C95.9506 253.955 95.9381 255.01 95.9381 256.057C95.9381 256.503 95.9403 256.949 95.9447 257.397C96.0225 265.262 92.2931 272.822 85.4823 276.756L58.319 292.443C48.7539 297.967 45.4778 310.199 51.0015 319.764L98.1706 401.444C103.695 411.01 115.928 414.286 125.493 408.761L152.762 393.011C159.514 389.111 167.861 389.592 174.579 393.55C175.406 394.037 176.239 394.517 177.075 394.99C183.87 398.826 188.467 405.817 188.467 413.619V445.113C188.467 456.159 197.421 465.113 208.467 465.113H302.813C313.859 465.113 322.813 456.159 322.813 445.113V413.596C322.813 405.805 327.395 398.821 334.172 394.979C334.48 394.805 334.787 394.629 335.094 394.453C341.853 390.561 350.208 390.174 356.917 394.151L384.026 410.218C393.529 415.85 405.798 412.713 411.429 403.21L459.517 322.067C465.148 312.565 462.01 300.296 452.507 294.665L425.51 278.667C418.751 274.662 415.103 267.072 415.288 259.217C415.313 258.154 415.326 257.101 415.326 256.057C415.326 255.61 415.323 255.164 415.319 254.716C415.242 246.852 418.971 239.291 425.781 235.358L452.938 219.674C462.506 214.149 465.781 201.913 460.252 192.347L413.048 110.675ZM393.214 222.846C388.397 225.627 385.77 231.07 386.588 236.572V236.572C387.681 243.973 388.208 250.155 388.208 256.057C388.208 262.414 387.601 269.265 386.357 277.041V277.041C385.481 282.534 388.049 288.004 392.834 290.839L415.339 304.173C424.842 309.804 427.981 322.072 422.35 331.575L401.915 366.063C396.283 375.567 384.012 378.705 374.509 373.071L352.03 359.745C347.233 356.901 341.184 357.287 336.787 360.717V360.717C326.865 368.445 315.914 374.706 304.261 379.301V379.301C299.083 381.341 295.679 386.341 295.679 391.907V418.003C295.679 429.049 286.725 438.003 275.679 438.003H235.561C224.515 438.003 215.561 429.049 215.561 418.003V391.914C215.561 386.351 212.166 381.352 206.995 379.301V379.301C194.768 374.475 183.426 367.911 173.257 359.815V359.815C168.898 356.337 162.854 355.884 158.025 358.672L135.415 371.73C125.85 377.255 113.617 373.978 108.093 364.412L88.0482 329.7C82.5251 320.136 85.8005 307.905 95.3644 302.38L118.05 289.276C122.867 286.494 125.494 281.051 124.675 275.55V275.55C123.583 268.148 123.056 261.967 123.056 256.065C123.056 249.676 123.646 242.992 124.907 235.048V235.048C125.764 229.562 123.193 224.107 118.415 221.277L95.912 207.947C86.4076 202.317 83.2676 190.048 88.899 180.544L109.331 146.063C114.963 136.557 127.237 133.42 136.74 139.057L159.219 152.391C164.015 155.235 170.064 154.85 174.461 151.421V151.421C184.415 143.676 195.366 137.415 207.003 132.821V132.821C212.172 130.78 215.569 125.787 215.569 120.23V94.1181C215.569 83.0724 224.523 74.1181 235.569 74.1181H275.687C286.733 74.1181 295.687 83.0724 295.687 94.1181V120.193C295.687 125.764 299.089 130.77 304.269 132.821V132.821C316.464 137.646 327.822 144.21 337.999 152.306V152.306C342.368 155.785 348.422 156.236 353.258 153.444L375.846 140.402C385.409 134.88 397.639 138.154 403.164 147.716L423.215 182.418C428.742 191.983 425.467 204.218 415.901 209.743L393.214 222.846Z" fill="white"/>
</svg>
