<svg width="512" height="512" viewBox="0 0 512 512" fill="none" xmlns="http://www.w3.org/2000/svg">
<g clip-path="url(#clip0_38_53)">
<path fill-rule="evenodd" clip-rule="evenodd" d="M115.084 350.237L209.867 255.5L115.084 160.763C105.557 151.241 105.557 135.858 115.084 126.336C124.611 116.813 140.001 116.813 149.529 126.336L261.656 238.408C271.183 247.931 271.183 263.313 261.656 272.836L149.529 384.908C140.001 394.431 124.611 394.431 115.084 384.908C105.801 375.386 105.557 359.759 115.084 350.237Z" fill="white"/>
</g>
<g clip-path="url(#clip1_38_53)">
<path fill-rule="evenodd" clip-rule="evenodd" d="M240.084 351.237L334.867 256.5L240.084 161.763C230.557 152.241 230.557 136.858 240.084 127.336C249.611 117.813 265.001 117.813 274.529 127.336L386.656 239.408C396.183 248.931 396.183 264.313 386.656 273.836L274.529 385.908C265.001 395.431 249.611 395.431 240.084 385.908C230.801 376.386 230.557 360.759 240.084 351.237Z" fill="white"/>
</g>
<defs>
<clipPath id="clip0_38_53">
<rect width="171" height="293" fill="white" transform="translate(108 109)"/>
</clipPath>
<clipPath id="clip1_38_53">
<rect width="171" height="293" fill="white" transform="translate(233 110)"/>
</clipPath>
</defs>
</svg>
