<svg width="512" height="512" viewBox="0 0 512 512" fill="none" xmlns="http://www.w3.org/2000/svg">
<path d="M433.778 168.631C440.865 165.826 444.379 157.781 441.103 150.898C425.729 118.597 402.129 90.802 372.57 70.369C339.218 47.3136 299.778 34.666 259.238 34.0256C218.698 33.3851 178.878 44.7806 144.815 66.771C114.625 86.2602 90.159 113.295 73.7724 145.095C70.2807 151.871 73.5385 160.023 80.5339 163.051V163.051C87.5294 166.079 95.6076 162.831 99.1701 156.092C113.34 129.288 134.185 106.49 159.786 89.9624C189.263 70.9332 223.721 61.0721 258.802 61.6263C293.883 62.1805 328.012 73.1251 356.873 93.0759C381.94 110.404 402.054 133.849 415.37 161.087C418.718 167.936 426.69 171.437 433.778 168.631V168.631Z" fill="white"/>
<path d="M256 395C332.768 395 395 332.768 395 256C395 179.232 332.768 117 256 117C179.232 117 117 179.232 117 256C117 332.768 179.232 395 256 395Z" stroke="white" stroke-width="28" stroke-linecap="round" stroke-linejoin="round"/>
<path d="M256 173V256.25L312 284" stroke="white" stroke-width="28" stroke-linecap="round" stroke-linejoin="round"/>
<path d="M456.186 198.683C455.723 205.976 447.221 209.706 441.541 205.107L404.241 174.907C399.001 170.664 400.114 162.378 406.289 159.67L446.632 141.974C452.807 139.265 459.657 144.057 459.229 150.786L456.186 198.683Z" fill="white"/>
</svg>
