<svg width="512" height="512" viewBox="0 0 512 512" fill="none" xmlns="http://www.w3.org/2000/svg">
<path d="M451.997 243.911C451.997 207.496 401.572 178.765 337.727 178.765C319.874 178.765 303.913 180.657 289.193 185.15V135.375C289.193 134.724 289.193 134.074 289.193 133.483C289.193 132.833 289.193 132.182 289.193 131.591V65.1453C289.193 28.7302 238.767 0 174.923 0C110.427 0 60.002 28.7302 60.002 65.1453V130.291C60.002 130.941 60.002 131.591 60.002 132.182C60.002 132.833 60.002 133.483 60.002 134.074V199.219C60.002 199.87 60.002 200.52 60.002 201.111C60.002 201.702 60.002 202.412 60.002 203.003V268.148C60.002 268.799 60.002 269.449 60.002 270.04C60.002 270.631 60.002 271.341 60.002 271.932V337.668C60.002 374.083 110.427 402.813 174.273 402.813C191.534 402.813 208.087 400.921 222.806 397.079V446.854C222.806 483.269 273.232 511.999 337.077 511.999C400.922 511.999 451.347 483.269 451.347 446.854V381.827C451.347 381.177 451.347 380.526 451.347 379.935C451.347 379.285 451.347 378.635 451.347 378.044V312.898C451.347 312.248 451.347 311.597 451.347 311.007C451.347 310.356 451.347 309.706 451.347 309.115V243.911H451.997ZM90.033 109.837C90.6835 110.487 91.9248 111.137 92.5752 111.137C95.1174 113.029 98.3094 114.329 101.501 115.63C104.693 116.931 107.886 118.172 111.078 119.473C112.379 120.123 113.62 120.123 114.27 120.773C116.812 121.424 118.763 122.074 121.305 123.316C122.606 123.966 123.847 123.966 125.798 124.616C128.34 125.267 130.29 125.917 132.833 126.508C134.133 127.159 136.025 127.159 137.325 127.159C139.868 127.809 142.409 127.809 145.01 128.46C146.311 128.46 148.202 129.11 149.503 129.11C152.045 129.76 155.237 129.76 157.779 129.76C159.08 129.76 160.322 129.76 161.622 130.411C166.115 130.411 169.898 131.061 174.391 131.061C178.884 131.061 183.317 131.061 187.16 130.411C188.461 130.411 189.702 130.411 191.002 129.76C193.545 129.76 196.737 129.11 199.279 129.11C200.58 129.11 202.471 128.46 203.772 128.46C206.314 127.809 208.855 127.809 211.456 127.159C212.757 127.159 214.648 126.508 215.949 126.508C218.491 125.858 220.442 125.207 222.984 124.616C224.285 123.966 225.526 123.966 227.477 123.316C230.019 122.665 231.97 122.015 234.512 120.773C235.813 120.123 237.054 120.123 237.704 119.473C240.896 118.172 244.088 116.93 247.28 115.63C250.472 114.329 253.015 112.438 256.206 111.137C256.857 110.487 258.098 109.837 258.749 109.837C260.64 108.536 262.591 107.294 264.483 105.994C264.483 105.994 265.133 105.344 265.784 105.344V130.232C265.784 150.035 228.777 171.731 175.1 171.731C121.423 171.731 84.4166 150.036 84.4166 130.232V105.344C84.4166 105.344 85.067 105.994 85.7174 105.994C86.1907 107.294 88.0818 108.595 90.033 109.837ZM284.76 301.371C286.06 302.022 287.302 302.022 289.252 302.672C291.795 303.322 293.745 303.973 296.287 304.564C297.588 305.214 299.479 305.214 300.78 305.214C303.322 305.865 305.864 305.865 308.465 306.515C309.766 306.515 311.657 307.165 312.958 307.165C315.5 307.816 318.692 307.816 321.234 307.816C322.534 307.816 323.776 307.816 325.076 308.466C329.569 308.466 333.353 309.117 337.846 309.117C342.338 309.117 346.772 309.117 350.615 308.466C351.915 308.466 353.157 308.466 354.457 307.816C356.999 307.816 360.191 307.165 362.733 307.165C364.034 307.165 365.925 306.515 367.226 306.515C369.768 305.865 372.31 305.865 374.911 305.214C376.211 305.214 378.103 304.564 379.404 304.564C381.946 303.913 383.897 303.263 386.439 302.672C387.74 302.022 388.981 302.022 390.932 301.371C393.474 300.721 395.424 300.07 397.967 298.829C399.267 298.179 400.509 298.179 401.159 297.528C404.351 296.227 407.544 294.986 410.736 293.686C413.928 292.385 416.47 290.494 419.663 289.193C420.313 288.543 421.554 287.892 422.205 287.892C424.097 286.591 426.047 285.35 427.939 284.05C427.939 284.05 428.589 283.399 429.24 283.399V308.287C429.24 328.091 392.233 349.787 338.556 349.787C315.56 349.787 295.166 345.944 279.795 339.56C279.795 339.56 279.145 339.56 279.145 338.909C261.883 331.874 250.415 321.647 247.873 312.071C247.873 312.071 247.873 312.071 247.873 311.42C247.873 310.77 247.873 310.12 247.873 309.529V282.69C249.173 283.341 249.764 283.991 251.065 285.232C251.065 285.232 251.065 285.232 251.715 285.232C252.365 285.232 252.365 285.883 253.016 285.883C254.317 286.533 254.908 287.184 256.208 287.774C257.509 288.425 258.1 289.075 259.4 289.666H260.05C260.701 289.666 260.701 290.317 261.351 290.317C263.893 291.618 266.435 292.859 269.627 294.159C270.278 294.159 270.928 294.809 271.519 294.809C272.82 295.46 274.711 296.11 276.012 296.701C277.313 297.352 277.904 297.352 279.204 298.002C279.616 300.13 282.159 300.78 284.76 301.371ZM223.457 303.322C208.796 307.815 192.184 310.357 174.923 310.357C121.305 310.357 84.2401 288.662 84.2401 268.857V243.97C105.285 259.28 137.858 268.857 174.924 268.857C192.186 268.857 208.738 266.966 223.457 263.123L223.457 303.322ZM428.41 377.985C428.41 397.788 391.404 419.484 337.727 419.484C286 419.484 248.994 399.03 247.043 379.877V353.038C252.127 356.88 257.92 360.073 264.305 363.265C265.606 363.915 266.197 364.566 267.497 364.566C268.147 364.566 268.798 365.216 269.389 365.216C288.542 372.901 311.538 377.985 337.727 377.985C375.383 377.985 407.956 368.409 428.41 353.098V377.985ZM231.733 218.373C230.432 219.674 229.841 221.565 228.541 222.866C227.891 223.516 227.891 224.167 227.24 225.408C226.59 226.709 225.939 227.95 225.939 228.6C225.289 229.901 225.289 231.142 224.639 231.792C224.639 232.442 223.988 232.442 223.988 233.093C209.327 238.177 192.066 240.778 174.213 240.778C120.595 240.778 83.5302 219.082 83.5302 199.278V174.391C104.575 189.702 137.148 199.279 174.214 199.279C211.279 199.279 244.443 189.702 264.897 174.391V192.244C250.236 198.628 238.709 207.555 231.674 217.132C232.383 218.373 231.733 218.373 231.733 218.373ZM428.41 243.911C428.41 263.714 391.404 285.41 337.727 285.41C312.839 285.41 291.734 280.917 276.424 273.942C274.532 273.291 272.581 272.05 270.69 271.4C270.69 271.4 270.039 271.4 270.039 270.749C270.039 270.749 270.039 270.749 269.389 270.749L266.847 269.448C265.546 268.147 264.955 267.557 264.304 267.557C264.304 267.557 263.654 267.557 263.654 266.906C263.654 266.906 263.654 266.906 263.004 266.906C261.703 266.256 260.461 265.014 259.161 263.714C259.161 263.714 259.161 263.714 258.511 263.714C257.86 263.064 257.21 262.413 256.619 261.822C255.969 261.172 255.318 260.522 254.727 260.522C254.077 259.871 253.426 259.221 252.835 258.63C252.185 257.979 251.535 257.329 251.535 256.738C250.884 256.088 250.884 255.437 250.234 254.846C249.583 254.196 249.583 253.545 248.933 252.954C247.632 250.412 247.041 248.462 247.041 245.919C247.041 245.269 247.041 244.619 247.041 244.619C247.041 243.318 247.041 242.076 247.692 240.126C250.884 229.899 263.002 220.322 281.506 213.287H282.156C297.467 207.553 315.97 203.711 338.316 203.711C391.345 202.411 428.41 224.166 428.41 243.911ZM174.273 23.6465C227.891 23.6465 264.956 45.3418 264.956 65.1459C264.956 84.95 227.95 106.645 174.273 106.645C120.596 106.645 83.589 84.95 83.589 65.1459C83.6485 45.9922 120.654 23.6465 174.273 23.6465ZM83.6485 337.786V312.898C104.693 328.209 137.267 337.786 174.331 337.786C191.593 337.786 208.145 335.894 222.865 332.052V372.901C208.204 377.394 191.593 379.936 174.331 379.936C120.654 379.286 83.6485 357.59 83.6485 337.786ZM428.41 446.972C428.41 466.776 391.404 488.472 337.727 488.472C284.05 488.472 247.043 466.777 247.043 446.972V422.085C268.088 437.395 300.661 446.972 337.727 446.972C374.793 446.972 407.956 437.396 428.41 422.085V446.972Z" fill="white"/>
</svg>
