<svg width="512" height="512" viewBox="0 0 512 512" fill="none" xmlns="http://www.w3.org/2000/svg">
<path d="M353.555 181.191C365.227 169.58 365.227 150.891 365.227 113.514C365.227 76.1371 365.227 57.4485 353.555 45.8371M353.555 181.191C341.882 192.803 323.097 192.803 285.525 192.803H205.823C168.252 192.803 149.466 192.803 137.794 181.191M353.555 45.8371C341.882 34.2254 323.097 34.2254 285.525 34.2254H205.823C168.252 34.2254 149.466 34.2254 137.794 45.8371M137.794 45.8371C126.122 57.4485 126.122 76.1371 126.122 113.514C126.122 150.891 126.122 169.58 137.794 181.191" stroke="white" stroke-width="23"/>
<path d="M264.877 113.514C264.877 124.462 256.003 133.337 245.055 133.337C234.107 133.337 225.233 124.462 225.233 113.514C225.233 102.567 234.107 93.6921 245.055 93.6921C256.003 93.6921 264.877 102.567 264.877 113.514Z" stroke="white" stroke-width="23"/>
<path d="M365.227 93.6921C332.384 93.6921 305.761 67.0679 305.761 34.2254" stroke="white" stroke-width="23" stroke-linecap="round"/>
<path d="M365.227 133.337C332.384 133.337 305.761 159.961 305.761 192.803" stroke="white" stroke-width="23" stroke-linecap="round"/>
<path d="M126.122 93.6921C158.964 93.6921 185.588 67.0679 185.588 34.2254" stroke="white" stroke-width="23" stroke-linecap="round"/>
<path d="M126.122 133.337C158.964 133.337 185.588 159.961 185.588 192.803" stroke="white" stroke-width="23" stroke-linecap="round"/>
<path d="M86.4772 399.963H131.439C151.55 399.963 171.878 402.051 191.45 406.069C226.073 413.175 262.525 414.035 297.503 408.396M278.99 343.05C281.374 342.774 283.658 342.459 285.838 342.112C303.97 339.23 319.19 329.577 333.125 319.089L369.079 292.03C381.754 282.489 400.567 282.487 413.244 292.024C424.658 300.611 428.148 314.748 420.932 326.27C412.518 339.71 400.663 356.902 389.279 367.405M278.99 343.05C278.272 343.133 277.546 343.212 276.81 343.288M278.99 343.05C281.891 342.432 284.77 340.648 287.473 338.299C300.27 327.17 301.078 308.417 289.974 295.99C287.4 293.108 284.384 290.704 281.033 288.711C225.379 255.638 138.79 280.828 86.4772 317.791M278.99 343.05C278.264 343.205 277.536 343.288 276.81 343.288M276.81 343.288C266.397 344.352 254.217 344.628 240.7 343.355" stroke="white" stroke-width="29" stroke-linecap="round"/>
</svg>
