<svg width="512" height="512" viewBox="0 0 512 512" fill="none" xmlns="http://www.w3.org/2000/svg">
<path fill-rule="evenodd" clip-rule="evenodd" d="M256.296 481.072L252.2 479.536C144.68 444.72 73 345.392 73 232.24V82.736L255.784 30L439.08 82.736V232.24C439.08 345.392 367.4 444.72 260.392 479.536L256.296 481.072ZM98.6 102.704V232.752C98.6 333.104 161.576 421.68 256.296 454.448C350.504 421.68 413.48 333.104 413.48 232.752V102.704L255.784 57.136L98.6 102.704ZM161.808 264.092L178.794 245.749L237.231 299.86L345.569 185.792L363.696 203.009L255.576 316.847L255.615 316.884L238.63 335.227L161.808 264.092Z" fill="white"/>
</svg>
