<svg width="512" height="512" viewBox="0 0 512 512" fill="none" xmlns="http://www.w3.org/2000/svg">
<path d="M399.11 192.545C389.766 197.887 384 207.826 384 218.589V293.439C384 304.205 389.768 314.144 399.114 319.486L467.114 358.348C487.114 369.778 512 355.337 512 332.301V179.71C512 156.672 487.109 142.231 467.11 153.666L399.11 192.545Z" fill="white"/>
<path d="M320 128H32C14.304 128 0 142.304 0 160V352C0 369.696 14.304 384 32 384H320C337.696 384 352 369.696 352 352V320V292.576V219.424V192V160C352 142.336 337.696 128 320 128Z" fill="white"/>
</svg>
