<svg width="512" height="512" viewBox="0 0 512 512" fill="none" xmlns="http://www.w3.org/2000/svg">
<path fill-rule="evenodd" clip-rule="evenodd" d="M132 131.75C132 132.855 131.105 133.75 130 133.75H93.375C83.1265 133.75 73.3029 137.819 66.0671 145.067C58.8185 152.303 54.75 162.127 54.75 172.375V378.375C54.75 388.623 58.8185 398.447 66.0671 405.683C73.3029 412.932 83.1265 417 93.375 417C159.733 417 336.017 417 402.375 417C412.623 417 422.447 412.932 429.683 405.683C436.932 398.447 441 388.623 441 378.375V172.375C441 162.127 436.932 152.303 429.683 145.067C422.447 137.819 412.623 133.75 402.375 133.75H365.75C364.645 133.75 363.75 132.855 363.75 131.75V120.875C363.75 99.5411 346.459 82.25 325.125 82.25H170.625C149.291 82.25 132 99.5411 132 120.875V131.75ZM80.5 366.375C80.5 366.375 80.5 366.375 80.5 366.375V378.375C80.5 381.787 81.8519 385.07 84.2724 387.478C86.68 389.898 89.9631 391.25 93.375 391.25H402.375C405.787 391.25 409.07 389.898 411.478 387.478C413.898 385.07 415.25 381.787 415.25 378.375V242.5C415.25 242.5 87 246.25 80.5 246.25V317.75V321.75C80.5 326.75 80.5 325.75 80.5 332.75V337.25C80.5 341.75 80.5 356.37 80.5 349.25V359.25C80.5 362.75 80.5 366.375 80.5 366.375ZM415.25 201.344V172.375C415.25 168.963 413.898 165.68 411.478 163.272C409.07 160.852 405.787 159.5 402.375 159.5H93.375C89.9631 159.5 86.68 160.852 84.2724 163.272C81.8519 165.68 80.5 168.963 80.5 172.375V178.375V183.875V187.375V190.25V193.75C80.5 186.643 80.5 203.75 80.5 205.25V212.25C80.5 234.75 80.5 239.143 80.5 246.25L415.25 242.5V201.344ZM336 133.75C337.105 133.75 338 132.855 338 131.75V120.875C338 113.768 332.232 108 325.125 108H170.625C163.518 108 157.75 113.768 157.75 120.875V131.75C157.75 132.855 158.645 133.75 159.75 133.75H336Z" fill="white"/>
<path d="M211.751 292.591C207.718 294.171 205.675 298.768 207.901 302.485C211.315 308.186 215.911 313.128 221.413 316.96C229.07 322.295 238.138 325.238 247.468 325.419C256.799 325.6 265.974 323.01 273.832 317.976C279.478 314.36 284.262 309.6 287.895 304.035C290.263 300.407 288.4 295.734 284.431 293.999V293.999C280.461 292.264 275.903 294.163 273.243 297.582C271.058 300.392 268.4 302.825 265.371 304.766C260.125 308.126 254.001 309.854 247.772 309.734C241.544 309.613 235.491 307.648 230.38 304.087C227.428 302.031 224.867 299.496 222.791 296.604C220.266 293.084 215.785 291.011 211.751 292.591V292.591Z" fill="white"/>
<path d="M248.5 355C292.407 355 328 319.407 328 275.5C328 231.593 292.407 196 248.5 196C204.593 196 169 231.593 169 275.5C169 319.407 204.593 355 248.5 355Z" stroke="white" stroke-width="18" stroke-linecap="round" stroke-linejoin="round"/>
<rect x="207" y="240" width="17" height="32" rx="8.5" fill="white"/>
<rect x="273" y="240" width="17" height="32" rx="8.5" fill="white"/>
</svg>
