<svg width="512" height="512" viewBox="0 0 512 512" fill="none" xmlns="http://www.w3.org/2000/svg">
<g clip-path="url(#clip0_35_26)">
<path fill-rule="evenodd" clip-rule="evenodd" d="M85.8235 425.385C83.3755 422.937 81.7876 419.761 81.298 416.334L69.9843 337.138C69.633 334.679 69.8591 332.172 70.6446 329.816C71.43 327.46 72.7534 325.318 74.5098 323.562L182.329 215.742C176.302 185.443 180.179 154.008 193.387 126.081C206.595 98.1532 228.434 75.2139 255.68 60.6507C282.925 46.0875 314.132 40.6724 344.691 45.2052C375.25 49.7381 403.541 63.9785 425.385 85.8234C447.23 107.668 461.471 135.959 466.004 166.518C470.536 197.077 465.121 228.284 450.558 255.529C435.995 282.774 413.056 304.614 385.128 317.822C357.201 331.03 325.766 334.907 295.467 328.879L278.157 346.189C276.676 347.687 274.915 348.878 272.973 349.693C271.032 350.508 268.949 350.932 266.843 350.941L237.54 350.828L237.653 380.13C237.662 382.243 237.252 384.336 236.448 386.289C235.644 388.242 234.461 390.016 232.967 391.51C231.474 393.003 229.699 394.186 227.746 394.991C225.793 395.795 223.7 396.205 221.588 396.196L192.285 396.083L192.399 425.385C192.398 427.683 191.902 429.953 190.946 432.042C189.989 434.131 188.594 435.989 186.855 437.491C185.117 438.995 183.076 440.107 180.87 440.751C178.664 441.395 176.345 441.557 174.07 441.224L94.8745 429.911C91.4474 429.421 88.2714 427.833 85.8235 425.385ZM102.794 340.532L111.279 399.929L160.381 406.944L160.268 380.13C160.259 378.018 160.669 375.925 161.473 373.972C162.277 372.019 163.46 370.245 164.954 368.751C166.447 367.258 168.222 366.075 170.175 365.27C172.128 364.466 174.221 364.056 176.333 364.065L205.636 364.178L205.523 334.876C205.514 332.763 205.923 330.67 206.728 328.717C207.532 326.764 208.715 324.99 210.209 323.496C211.702 322.003 213.477 320.82 215.43 320.015C217.383 319.211 219.476 318.801 221.588 318.81L260.168 318.923L279.062 300.029C281.048 298.067 283.513 296.658 286.213 295.944C288.912 295.229 291.751 295.234 294.448 295.956C318.263 302.338 343.518 300.682 366.297 291.247C389.075 281.812 408.103 265.125 420.431 243.773C432.758 222.421 437.696 197.598 434.478 173.154C431.26 148.71 420.066 126.011 402.632 108.577C385.198 91.1431 362.499 79.9491 338.055 76.7309C313.611 73.5128 288.788 78.4504 267.436 90.7779C246.084 103.105 229.397 122.134 219.962 144.912C210.526 167.69 208.871 192.946 215.252 216.76C215.975 219.458 215.979 222.297 215.265 224.996C214.55 227.696 213.142 230.161 211.179 232.147L102.794 340.532ZM314.654 171.413C315.888 177.62 318.936 183.322 323.411 187.797C329.413 193.799 337.552 197.17 346.039 197.17C354.526 197.17 362.665 193.799 368.666 187.797C373.141 183.322 376.189 177.62 377.424 171.413C378.659 165.205 378.025 158.771 375.603 152.924C373.181 147.077 369.079 142.079 363.817 138.563C358.555 135.047 352.368 133.17 346.039 133.17C339.71 133.17 333.523 135.047 328.261 138.563C322.998 142.079 318.897 147.077 316.475 152.924C314.053 158.771 313.419 165.205 314.654 171.413Z" fill="white"/>
</g>
<defs>
<clipPath id="clip0_35_26">
<rect width="512" height="512" fill="white"/>
</clipPath>
</defs>
</svg>
