<svg width="512" height="512" viewBox="0 0 512 512" fill="none" xmlns="http://www.w3.org/2000/svg">
<path fill-rule="evenodd" clip-rule="evenodd" d="M140.125 112.375C140.125 113.48 139.23 114.375 138.125 114.375H101.5C91.2515 114.375 81.4279 118.444 74.1921 125.692C66.9435 132.928 62.875 142.751 62.875 153V359C62.875 369.249 66.9435 379.072 74.1921 386.308C81.4279 393.557 91.2515 397.625 101.5 397.625C167.858 397.625 344.142 397.625 410.5 397.625C420.749 397.625 430.572 393.557 437.808 386.308C445.057 379.072 449.125 369.249 449.125 359V153C449.125 142.751 445.057 132.928 437.808 125.692C430.572 118.444 420.749 114.375 410.5 114.375H373.875C372.77 114.375 371.875 113.48 371.875 112.375V101.5C371.875 80.1661 354.584 62.875 333.25 62.875H178.75C157.416 62.875 140.125 80.1661 140.125 101.5V112.375ZM91.3802 211.336C90.0584 210.756 88.625 211.746 88.625 213.189V359C88.625 362.412 89.9769 365.695 92.3974 368.103C94.805 370.523 98.0881 371.875 101.5 371.875H410.5C413.912 371.875 417.195 370.523 419.603 368.103C422.023 365.695 423.375 362.412 423.375 359V213.203C423.375 211.759 421.941 210.77 420.619 211.35C402.086 219.492 296.31 265.929 294.689 265.952V265.952C294.654 265.952 294.625 265.981 294.625 266.017V281.904C294.625 289.024 288.857 294.779 281.75 294.779H230.25C223.143 294.779 217.375 289.024 217.375 281.904V267.901C217.375 266.796 216.545 265.636 215.519 265.226C201.155 259.487 108.599 218.893 91.3802 211.336ZM266.875 230.25C267.98 230.25 268.875 231.145 268.875 232.25V267.029C268.875 268.134 267.98 269.029 266.875 269.029H245.125C244.02 269.029 243.125 268.134 243.125 267.029V232.25C243.125 231.145 244.02 230.25 245.125 230.25H266.875ZM422.185 182.496C422.908 182.175 423.375 181.458 423.375 180.667V153C423.375 149.588 422.023 146.305 419.603 143.897C417.195 141.477 413.912 140.125 410.5 140.125H101.5C98.0881 140.125 94.805 141.477 92.3974 143.897C89.9769 146.305 88.625 149.588 88.625 153V180.667C88.625 181.458 89.0918 182.175 89.8155 182.496L214.566 237.71C215.888 238.295 217.375 237.327 217.375 235.881V217.375C217.375 210.268 223.143 204.5 230.25 204.5H281.75C288.857 204.5 294.625 210.268 294.625 217.375V235.919C294.625 237.365 296.113 238.333 297.435 237.748L422.185 182.496ZM344.125 114.375C345.23 114.375 346.125 113.48 346.125 112.375V101.5C346.125 94.393 340.357 88.625 333.25 88.625H178.75C171.643 88.625 165.875 94.393 165.875 101.5V112.375C165.875 113.48 166.77 114.375 167.875 114.375H344.125Z" fill="white"/>
</svg>
