<svg width="512" height="512" viewBox="0 0 512 512" fill="none" xmlns="http://www.w3.org/2000/svg">
<g clip-path="url(#clip0_35_240)">
<path d="M391.536 321.061C383.5 317.483 375.109 314.819 366.511 313.116C360.702 311.718 354.99 309.924 349.411 307.748C346.089 306.554 343.087 304.567 340.653 301.95C338.783 299.68 337.814 296.765 337.942 293.791C337.827 291.635 338.269 289.487 339.221 287.564C340.173 285.64 341.602 284.011 343.364 282.84C347.893 280.065 353.114 278.721 358.378 278.975C363.505 278.78 368.576 280.123 372.976 282.84C374.721 283.858 376.237 285.245 377.424 286.911C378.513 288.441 379.302 290.173 379.747 292.011C379.826 292.337 379.912 292.663 380.063 292.962C380.474 293.776 381.09 294.464 381.85 294.953C382.749 295.532 383.804 295.802 384.862 295.723H401.337C401.838 295.755 402.339 295.676 402.809 295.493C403.278 295.31 403.704 295.026 404.059 294.661C404.414 294.296 404.689 293.857 404.867 293.374C405.045 292.891 405.121 292.374 405.091 291.858C404.703 287.021 403.124 282.365 400.503 278.331C397.337 273.359 393.134 269.178 388.199 266.091C383.809 263.34 379.029 261.339 374.043 260.154C371.088 259.452 368.805 256.934 368.805 253.897V246.552C368.835 245.98 368.748 245.407 368.549 244.872C368.35 244.337 368.044 243.851 367.651 243.446C367.257 243.041 366.785 242.726 366.266 242.521C365.746 242.316 365.19 242.226 364.634 242.257H353.791C352.72 242.216 351.674 242.6 350.871 243.331C350.446 243.74 350.113 244.241 349.896 244.797C349.68 245.354 349.586 245.953 349.62 246.552V253.464C349.62 256.593 347.202 259.154 344.137 259.788C336.205 261.43 328.803 265.221 322.719 270.815C319.558 273.817 317.05 277.473 315.361 281.544C313.672 285.615 312.839 290.009 312.918 294.435C312.653 298.865 313.381 303.299 315.044 307.394C316.707 311.489 319.262 315.137 322.51 318.055C331.428 324.747 341.689 329.297 352.539 331.367C360.742 333.658 366.998 335.59 371.308 337.165C374.855 338.301 378.126 340.204 380.9 342.748C381.94 343.812 382.754 345.087 383.292 346.491C383.831 347.895 384.081 349.399 384.028 350.907C384.082 353.238 383.531 355.542 382.431 357.58C381.331 359.619 379.723 361.318 377.772 362.502C372.251 365.7 365.952 367.191 359.63 366.797C353.737 367.116 347.878 365.701 342.738 362.717C339.054 360.476 336.24 356.996 334.764 352.872C334.655 352.566 334.534 352.263 334.367 351.984C334.086 351.514 333.761 351.075 333.397 350.672C332.86 350.077 332.127 349.673 331.327 349.618C330.967 349.594 330.605 349.605 330.246 349.652C329.671 349.727 329.097 349.834 328.518 349.834H313.752C313.253 349.818 312.757 349.905 312.291 350.09C311.826 350.274 311.401 350.552 311.041 350.907C310.375 351.59 310 352.517 309.998 353.484C310.263 359.011 311.994 364.358 315.003 368.944C318.456 374.127 323.116 378.335 328.558 381.183C333.42 383.776 338.617 385.613 343.981 386.646C347.031 387.233 349.411 389.791 349.411 392.897V399.864C349.377 400.463 349.472 401.062 349.688 401.618C349.904 402.175 350.237 402.676 350.663 403.085C351.466 403.816 352.511 404.2 353.582 404.159H364.426C364.982 404.19 365.537 404.1 366.057 403.895C366.577 403.69 367.049 403.375 367.442 402.97C367.835 402.565 368.142 402.079 368.341 401.544C368.54 401.009 368.627 400.436 368.597 399.864V393.071C368.597 389.893 371.086 387.304 374.218 386.764C382.892 385.269 391.086 381.515 398 375.815C401.547 372.708 404.365 368.814 406.243 364.426C408.121 360.038 409.01 355.27 408.844 350.478C409.076 344.363 407.553 338.314 404.465 333.085C401.314 327.927 396.839 323.766 391.536 321.061Z" fill="white"/>
<path d="M359.63 179.987H312.453C309.139 179.987 306.453 177.301 306.453 173.987V124.803C306.453 121.956 305.354 119.225 303.399 117.212C301.444 115.198 298.791 114.067 296.026 114.067H289.097C285.783 114.067 283.097 111.381 283.097 108.067V56.7362C283.097 53.8888 281.998 51.158 280.043 49.1446C278.088 47.1311 275.435 46 272.67 46H22.4268C19.6614 46 17.0093 47.1311 15.0539 49.1446C13.0985 51.158 12 53.8888 12 56.7362L12 122.656C12 124.066 12.2697 125.462 12.7937 126.765C13.3177 128.067 14.0857 129.251 15.0539 130.248C16.0222 131.245 17.1716 132.036 18.4366 132.575C19.7017 133.115 21.0575 133.392 22.4268 133.392H30.1902C33.5039 133.392 36.1902 136.079 36.1902 139.392V190.724C36.1902 193.571 37.2887 196.302 39.2441 198.315C41.1995 200.329 43.8516 201.46 46.617 201.46H51.0438C54.3575 201.46 57.0438 204.146 57.0438 207.46V240.122C57.0438 243.436 54.3575 246.122 51.0438 246.122H25.7634C22.998 246.122 20.3459 247.253 18.3905 249.267C16.4351 251.28 15.3366 254.011 15.3366 256.858V453.974C15.3366 456.822 16.4351 459.553 18.3905 461.566C20.3459 463.58 22.998 464.711 25.7634 464.711H276.007C278.772 464.711 281.424 463.58 283.38 461.566C285.335 459.553 286.433 456.822 286.433 453.974V453.974C286.433 449.293 291.688 446.451 295.777 448.73C311.605 457.554 328.98 463.144 346.943 465.148C368.515 467.554 390.334 464.723 410.651 456.882C430.968 449.04 449.219 436.406 463.939 419.992C478.659 403.578 489.44 383.842 495.416 362.364C501.393 340.887 502.399 318.267 498.354 296.317C494.31 274.367 485.327 253.698 472.126 235.968C458.925 218.237 441.873 203.938 422.337 194.216C402.801 184.495 381.324 179.622 359.63 179.987ZM32.8536 73.4723C32.8536 70.1586 35.5399 67.4723 38.8536 67.4723H256.243C259.557 67.4723 262.243 70.1586 262.243 73.4723V105.92C262.243 109.234 259.557 111.92 256.243 111.92H38.8536C35.5399 111.92 32.8536 109.234 32.8536 105.92V73.4723ZM57.0438 141.54C57.0438 138.226 59.7301 135.54 63.0438 135.54H280.433C283.747 135.54 286.433 138.226 286.433 141.54V173.987C286.433 177.301 283.747 179.987 280.433 179.987H63.0438C59.7301 179.987 57.0438 177.301 57.0438 173.987V141.54ZM77.8974 207.46C77.8974 204.146 80.5837 201.46 83.8974 201.46H265.936C271.93 201.46 274.565 209.803 270.043 213.737C260.258 222.25 251.635 232.126 244.435 243.102C243.299 244.834 241.382 245.908 239.311 245.908H83.8974C80.5837 245.908 77.8974 243.221 77.8974 239.908V207.46ZM223.873 377.962H42.1902C38.8765 377.962 36.1902 375.276 36.1902 371.962V339.515C36.1902 336.201 38.8765 333.515 42.1902 333.515H214.935C218.089 333.515 220.691 335.958 221.028 339.094C222.219 350.162 224.67 361.047 228.331 371.522C229.416 374.629 227.164 377.962 223.873 377.962V377.962ZM36.1902 273.38C36.1902 270.066 38.8765 267.38 42.1902 267.38H222.65C226.915 267.38 229.829 271.712 228.461 275.752C225.114 285.634 222.837 295.87 221.675 306.275C221.326 309.399 218.729 311.828 215.585 311.828H42.1902C38.8765 311.828 36.1902 309.141 36.1902 305.828V273.38ZM265.266 437.584C265.437 441.011 262.705 443.883 259.274 443.883H42.1902C38.8765 443.883 36.1902 441.196 36.1902 437.883V405.435C36.1902 402.121 38.8765 399.435 42.1902 399.435H239.086C241.166 399.435 243.09 400.517 244.224 402.261C249.685 410.659 255.996 418.439 263.049 425.471C264.13 426.549 264.788 427.983 264.864 429.507L265.266 437.584ZM360.464 443.883C339.808 443.904 319.511 438.323 301.616 427.703C283.72 417.082 268.856 401.796 258.519 383.383C248.182 364.969 242.737 344.077 242.732 322.809C242.727 301.54 248.162 280.645 258.49 262.226C258.902 261.622 259.252 260.974 259.532 260.294C270.133 242.172 285.159 227.226 303.114 216.943C321.07 206.66 341.328 201.4 361.871 201.686C382.415 201.971 402.528 207.793 420.207 218.572C437.885 229.35 452.514 244.709 462.635 263.119C472.756 281.53 478.018 302.348 477.895 323.503C477.772 344.658 472.269 365.411 461.934 383.695C451.6 401.979 436.794 417.156 418.991 427.716C401.188 438.276 381.009 443.85 360.464 443.883Z" fill="white"/>
</g>
<defs>
<clipPath id="clip0_35_240">
<rect width="512" height="512" fill="white"/>
</clipPath>
</defs>
</svg>
