<svg width="512" height="512" viewBox="0 0 512 512" fill="none" xmlns="http://www.w3.org/2000/svg">
<path fill-rule="evenodd" clip-rule="evenodd" d="M94.1157 167.668L100.96 170.67C107.134 173.378 108.248 181.664 103.008 185.907L65.7075 216.107C60.028 220.706 51.5255 216.976 51.0622 209.683L48.0192 161.786C47.5917 155.057 54.4419 150.265 60.6164 152.974L68.784 156.556C84.1605 126.531 106.762 100.667 134.678 81.369C168.031 58.3136 207.47 45.666 248.01 45.0256C288.551 44.3852 328.37 55.7806 362.434 77.771C392.623 97.2602 417.09 124.295 433.476 156.095C436.968 162.871 433.71 171.023 426.715 174.051C419.719 177.079 411.641 173.831 408.078 167.092C393.909 140.288 373.063 117.49 347.462 100.962C317.985 81.9332 283.528 72.0722 248.447 72.6263C213.365 73.1805 179.236 84.1251 150.375 104.076C126.675 120.459 107.401 142.312 94.1157 167.668Z" fill="white"/>
<path d="M256 395C332.768 395 395 332.768 395 256C395 179.232 332.768 117 256 117C179.232 117 117 179.232 117 256C117 332.768 179.232 395 256 395Z" stroke="white" stroke-width="28" stroke-linecap="round" stroke-linejoin="round"/>
<path d="M256 173V256.25L312 284" stroke="white" stroke-width="28" stroke-linecap="round" stroke-linejoin="round"/>
</svg>
