<svg width="512" height="512" viewBox="0 0 512 512" fill="none" xmlns="http://www.w3.org/2000/svg">
<g clip-path="url(#clip0_38_79)">
<path d="M207.147 240.853C203.13 236.836 197.681 234.579 192 234.579C186.319 234.579 180.871 236.836 176.854 240.853C172.836 244.871 170.58 250.319 170.58 256C170.58 261.681 172.836 267.13 176.854 271.147L240.854 335.147C242.847 337.124 245.211 338.688 247.81 339.75C250.409 340.811 253.193 341.35 256 341.333C258.921 341.241 261.791 340.549 264.433 339.301C267.075 338.054 269.433 336.277 271.36 334.08L420.694 163.413C424.142 159.132 425.804 153.686 425.335 148.209C424.865 142.732 422.299 137.648 418.173 134.016C414.046 130.385 408.677 128.486 403.185 128.717C397.693 128.947 392.501 131.289 388.694 135.253L256 288.853L207.147 240.853Z" fill="white"/>
<path d="M448 234.667C442.342 234.667 436.916 236.914 432.915 240.915C428.914 244.916 426.667 250.342 426.667 256C426.667 301.264 408.686 344.673 376.68 376.68C344.673 408.686 301.264 426.667 256 426.667C222.295 426.651 189.35 416.656 161.318 397.942C133.286 379.228 111.422 352.633 98.485 321.51C85.5476 290.387 82.1152 256.13 88.6206 223.059C95.1261 189.988 111.278 159.584 135.04 135.68C150.842 119.667 169.679 106.966 190.448 98.3213C211.218 89.6764 233.503 85.261 256 85.3333C269.642 85.4187 283.233 86.9925 296.533 90.0266C299.317 90.8875 302.247 91.1692 305.143 90.8543C308.039 90.5395 310.841 89.6347 313.374 88.1958C315.907 86.7568 318.119 84.8143 319.873 82.4879C321.626 80.1615 322.885 77.5005 323.571 74.6691C324.257 71.8376 324.356 68.8956 323.861 66.0245C323.367 63.1534 322.289 60.414 320.695 57.9752C319.101 55.5365 317.025 53.45 314.594 51.8445C312.163 50.2389 309.429 49.1483 306.56 48.64C289.987 44.7411 273.025 42.7372 256 42.6666C213.853 42.8856 172.714 55.5844 137.777 79.1605C102.84 102.737 75.6688 136.134 59.6933 175.137C43.7178 214.14 39.6536 257.001 48.0136 298.312C56.3736 339.622 76.7832 377.531 106.667 407.253C146.276 446.881 199.971 469.203 256 469.333C312.58 469.333 366.842 446.857 406.85 406.849C446.857 366.842 469.333 312.579 469.333 256C469.333 250.342 467.086 244.916 463.085 240.915C459.084 236.914 453.658 234.667 448 234.667Z" fill="white"/>
</g>
<defs>
<clipPath id="clip0_38_79">
<rect width="512" height="512" fill="white"/>
</clipPath>
</defs>
</svg>
