<svg width="512" height="512" viewBox="0 0 512 512" fill="none" xmlns="http://www.w3.org/2000/svg">
<g clip-path="url(#clip0_38_16)">
<path fill-rule="evenodd" clip-rule="evenodd" d="M53.0843 352.237L147.867 257.5L53.0843 162.763C43.5572 153.241 43.5572 137.858 53.0843 128.336C62.6115 118.813 78.0015 118.813 87.5286 128.336L199.656 240.408C209.183 249.931 209.183 265.313 199.656 274.836L87.5286 386.908C78.0015 396.431 62.6115 396.431 53.0843 386.908C43.8015 377.386 43.5572 361.759 53.0843 352.237Z" fill="white"/>
</g>
<g clip-path="url(#clip1_38_16)">
<path fill-rule="evenodd" clip-rule="evenodd" d="M178.084 350.237L272.867 255.5L178.084 160.763C168.557 151.241 168.557 135.858 178.084 126.336C187.611 116.813 203.001 116.813 212.529 126.336L324.656 238.408C334.183 247.931 334.183 263.313 324.656 272.836L212.529 384.908C203.001 394.431 187.611 394.431 178.084 384.908C168.801 375.386 168.557 359.759 178.084 350.237Z" fill="white"/>
</g>
<g clip-path="url(#clip2_38_16)">
<path fill-rule="evenodd" clip-rule="evenodd" d="M303.084 351.237L397.867 256.5L303.084 161.763C293.557 152.241 293.557 136.858 303.084 127.336C312.611 117.813 328.001 117.813 337.529 127.336L449.656 239.408C459.183 248.931 459.183 264.313 449.656 273.836L337.529 385.908C328.001 395.431 312.611 395.431 303.084 385.908C293.801 376.386 293.557 360.759 303.084 351.237Z" fill="white"/>
</g>
<defs>
<clipPath id="clip0_38_16">
<rect width="171" height="293" fill="white" transform="translate(46 111)"/>
</clipPath>
<clipPath id="clip1_38_16">
<rect width="171" height="293" fill="white" transform="translate(171 109)"/>
</clipPath>
<clipPath id="clip2_38_16">
<rect width="171" height="293" fill="white" transform="translate(296 110)"/>
</clipPath>
</defs>
</svg>
